<svg xmlns="http://www.w3.org/2000/svg" version="1.1" xmlns:xlink="http://www.w3.org/1999/xlink" xmlns:svgjs="http://svgjs.dev/svgjs" width="2000" height="681" viewBox="0 0 2000 681"><g transform="matrix(1,0,0,1,-1.2121212121210192,-0.8986425778908824)"><svg viewBox="0 0 396 135" data-background-color="#ffffff" preserveAspectRatio="xMidYMid meet" height="681" width="2000" xmlns="http://www.w3.org/2000/svg" xmlns:xlink="http://www.w3.org/1999/xlink"><g id="tight-bounds" transform="matrix(1,0,0,1,0.23999999999995225,0.1781450044277051)"><svg viewBox="0 0 395.52 134.64370999114462" height="134.64370999114462" width="395.52"><g><svg viewBox="0 0 654.7842368306219 222.9029603827751" height="134.64370999114462" width="395.52"><g transform="matrix(1,0,0,1,259.264236830622,80.6467592982456)"><svg viewBox="0 0 395.52 61.60944178628389" height="61.60944178628389" width="395.52"><g id="textblocktransform"><svg viewBox="0 0 395.52 61.60944178628389" height="61.60944178628389" width="395.52" id="textblock"><g><svg viewBox="0 0 395.52 61.60944178628389" height="61.60944178628389" width="395.52"><g transform="matrix(1,0,0,1,0,0)"><svg width="395.52" viewBox="1.65 -28.45 188.09 29.3" height="61.60944178628389" data-palette-color="#2257bf"><path d="M13-27.65Q17.4-27.65 19.7-26.18 22-24.7 22.75-22.23 23.5-19.75 23.5-16L23.5-16 23.5 0 18.8 0 18.8-2.75Q16.9-0.95 15-0.15 13.1 0.65 10.9 0.65L10.9 0.65Q8.3 0.65 6.2-0.48 4.1-1.6 2.88-3.73 1.65-5.85 1.65-8.75L1.65-8.75Q1.65-13.25 4.45-15.73 7.25-18.2 12-18.2L12-18.2Q15.75-18.2 18.75-16.55L18.75-16.55Q18.7-19 18.25-20.45 17.8-21.9 16.4-22.68 15-23.45 12.25-23.45L12.25-23.45 8.55-23.45 8.55-27.65 13-27.65ZM11.55-3.4Q13.25-3.4 15.13-4.2 17-5 18.8-6.6L18.8-6.6 18.8-12.9Q16-14.3 12.7-14.3L12.7-14.3Q10.05-14.3 8.25-13.03 6.45-11.75 6.45-8.75L6.45-8.75Q6.45-5.95 7.98-4.67 9.5-3.4 11.55-3.4L11.55-3.4ZM62.35-28.25Q67.4-28.25 69.82-25.55 72.25-22.85 72.25-16.65L72.25-16.65 72.25 0 67.55 0 67.55-16.65Q67.55-20.6 66.27-22.23 65-23.85 61.7-23.85L61.7-23.85Q57.8-23.85 53.9-20.1L53.9-20.1Q54.1-18.7 54.1-16.65L54.1-16.65 54.1 0 49.4 0 49.4-16.65Q49.4-20.6 48.12-22.23 46.85-23.85 43.55-23.85L43.55-23.85Q39.75-23.85 35.95-20.45L35.95-20.45 35.95 0 31.25 0 31.25-27.65 35.95-27.65 35.95-24.7Q40-28.25 44.2-28.25L44.2-28.25Q47.55-28.25 49.7-27.13 51.85-26 52.95-23.55L52.95-23.55Q57.5-28.25 62.35-28.25L62.35-28.25ZM88.65-27.65Q93.05-27.65 95.35-26.18 97.65-24.7 98.4-22.23 99.15-19.75 99.15-16L99.15-16 99.15 0 94.45 0 94.45-2.75Q92.55-0.95 90.65-0.15 88.75 0.65 86.55 0.65L86.55 0.65Q83.95 0.65 81.85-0.48 79.75-1.6 78.52-3.73 77.3-5.85 77.3-8.75L77.3-8.75Q77.3-13.25 80.1-15.73 82.9-18.2 87.65-18.2L87.65-18.2Q91.4-18.2 94.4-16.55L94.4-16.55Q94.35-19 93.9-20.45 93.45-21.9 92.05-22.68 90.65-23.45 87.9-23.45L87.9-23.45 84.2-23.45 84.2-27.65 88.65-27.65ZM87.2-3.4Q88.9-3.4 90.77-4.2 92.65-5 94.45-6.6L94.45-6.6 94.45-12.9Q91.65-14.3 88.35-14.3L88.35-14.3Q85.7-14.3 83.9-13.03 82.1-11.75 82.1-8.75L82.1-8.75Q82.1-5.95 83.62-4.67 85.15-3.4 87.2-3.4L87.2-3.4ZM110.94-4.25L126.54-4.25 126.54 0 105.69 0 105.69-4.25 120.24-23.35 106.59-23.35 106.59-27.65 125.44-27.65 125.44-23.35 110.94-4.25ZM145.64 0.85Q141.24 0.85 138.17-1.07 135.09-3 133.54-6.33 131.99-9.65 131.99-13.8L131.99-13.8Q131.99-17.95 133.54-21.28 135.09-24.6 138.17-26.53 141.24-28.45 145.64-28.45L145.64-28.45Q150.04-28.45 153.12-26.53 156.19-24.6 157.72-21.28 159.24-17.95 159.24-13.8L159.24-13.8Q159.24-9.65 157.72-6.33 156.19-3 153.12-1.07 150.04 0.85 145.64 0.85L145.64 0.85ZM145.64-3.4Q149.79-3.4 152.07-6.3 154.34-9.2 154.34-13.8L154.34-13.8Q154.34-18.4 152.07-21.28 149.79-24.15 145.64-24.15L145.64-24.15Q141.49-24.15 139.19-21.28 136.89-18.4 136.89-13.8L136.89-13.8Q136.89-9.2 139.19-6.3 141.49-3.4 145.64-3.4L145.64-3.4ZM179.69-28.25Q184.79-28.25 187.26-25.55 189.74-22.85 189.74-16.65L189.74-16.65 189.74 0 185.04 0 185.04-16.65Q185.04-20.55 183.71-22.2 182.39-23.85 179.04-23.85L179.04-23.85Q175.14-23.85 171.24-20.45L171.24-20.45 171.24 0 166.54 0 166.54-27.65 171.24-27.65 171.24-24.7Q175.34-28.25 179.69-28.25L179.69-28.25Z" opacity="1" transform="matrix(1,0,0,1,0,0)" fill="#2257bf" class="wordmark-text-0" data-fill-palette-color="primary" id="text-0"></path></svg></g></svg></g></svg></g></svg></g><g><svg viewBox="0 0 222.9029603827751 222.9029603827751" height="222.9029603827751" width="222.9029603827751"><g><svg viewBox="0 0 222.9029603827751 222.9029603827751" height="222.9029603827751" width="222.9029603827751"><g transform="matrix(1,0,0,1,58.91274858031532,58.91274858031532)"><svg viewBox="0 0 105.07746322214444 105.07746322214444" height="105.07746322214444" width="105.07746322214444"><g><svg xmlns="http://www.w3.org/2000/svg" xmlns:xlink="http://www.w3.org/1999/xlink" version="1.1" viewBox="0 0 96 96" x="0" y="0" height="105.07746322214444" width="105.07746322214444" class="icon-dxe-0" data-fill-palette-color="accent" id="dxe-0"><path d="M86 96H10C8.896 96 8 95.1 8 94V56C8 54.9 8.896 54 10 54S12 54.9 12 56V92H84V56C84 54.9 84.9 54 86 54S88 54.9 88 56V94C88 95.1 87.1 96 86 96" fill="#3767c7" data-fill-palette-color="accent"></path><path d="M78 88H18C16.896 88 16 87.1 16 86V56C16 54.9 16.896 54 18 54S20 54.9 20 56V84H76V56C76 54.9 76.9 54 78 54S80 54.9 80 56V86C80 87.1 79.1 88 78 88" fill="#3767c7" data-fill-palette-color="accent"></path><path d="M87 58C83.916 58 81.368 56.6 79.78 54.272A9.97 9.97 0 0 1 72 58C68.736 58 65.828 56.42 64 53.992 62.172 56.42 59.264 58 56 58S49.828 56.42 48 53.992C46.172 56.42 43.268 58 40 58S33.828 56.42 32 53.992C30.172 56.42 27.268 58 24 58S17.828 56.42 16 53.992C14.172 56.42 11.268 58 8 58 3.588 58 0 53.516 0 48V46C0 45.628 0.104 45.264 0.3 44.948L10.176 28.948A2 2 0 0 1 11.876 28H84C84.688 28 85.332 28.356 85.696 28.94L95.696 44.94C95.9 45.256 96 45.624 96 46V48C96 53.888 92.3 58 87 58M82 48C82 50.764 83.308 54 87 54S92 50.764 92 48V46.58L82.892 32H12.992L4 46.572V48C4 51.252 5.832 54 8 54 11.308 54 14 51.308 14 48 14 46.9 14.896 46 16 46S18 46.9 18 48C18 51.308 20.692 54 24 54S30 51.308 30 48C30 46.9 30.896 46 32 46S34 46.9 34 48C34 51.308 36.692 54 40 54S46 51.308 46 48C46 46.9 46.896 46 48 46S50 46.9 50 48C50 51.308 52.692 54 56 54S62 51.308 62 48C62 46.9 62.9 46 64 46S66 46.9 66 48C66 51.308 68.692 54 72 54S78 51.308 78 48C78 46.9 78.9 46 80 46S82 46.9 82 48" fill="#3767c7" data-fill-palette-color="accent"></path><path d="M74 20H22C20.896 20 20 19.1 20 18V2C20 0.9 20.896 0 22 0H74C75.1 0 76 0.9 76 2V18C76 19.1 75.1 20 74 20M24 16H72V4H24z" fill="#3767c7" data-fill-palette-color="accent"></path><path d="M32 20H36V28H32z" fill="#3767c7" data-fill-palette-color="accent"></path><path d="M60 20H64V28H60z" fill="#3767c7" data-fill-palette-color="accent"></path></svg></g></svg></g><g id="text-0"><path d="M4.333 76.436c0.434-1.361 0.992-2.324 1.672-2.889 0.687-0.563 1.448-0.838 2.285-0.825 0.845 0.009 1.846 0.198 3.003 0.567v0l7.427 2.369-0.695 2.18-1.273-0.406c0.363 0.768 0.577 1.485 0.64 2.15 0.061 0.672-0.017 1.346-0.232 2.023v0c-0.256 0.802-0.662 1.473-1.219 2.013-0.556 0.54-1.224 0.895-2.003 1.067-0.777 0.165-1.616 0.104-2.517-0.184v0c-1.387-0.443-2.328-1.218-2.823-2.324-0.486-1.111-0.494-2.403-0.023-3.877v0c0.369-1.157 0.955-2.119 1.757-2.884v0c-0.76-0.228-1.386-0.345-1.878-0.349-0.491-0.005-0.928 0.171-1.309 0.528-0.375 0.358-0.699 0.965-0.972 1.82v0l-0.548 1.716-1.952-0.623zM15.37 80.708c0.168-0.526 0.22-1.122 0.157-1.787-0.059-0.656-0.249-1.344-0.57-2.062v0l-2.919-0.931c-0.711 0.729-1.229 1.604-1.555 2.623v0c-0.262 0.822-0.285 1.575-0.069 2.26 0.216 0.685 0.788 1.175 1.715 1.471v0c0.868 0.277 1.575 0.242 2.121-0.106 0.546-0.348 0.919-0.837 1.12-1.468z" fill="#3767c7" data-fill-palette-color="accent"></path><path d="M40.144 24.071c1.204-1.118 2.392-1.624 3.565-1.516 1.173 0.107 2.445 0.898 3.817 2.375v0l5.516 5.939-1.676 1.558-5.517-5.94c-0.874-0.941-1.643-1.465-2.308-1.572-0.66-0.103-1.385 0.213-2.174 0.945v0c-0.925 0.86-1.44 2.167-1.544 3.921v0c0.361 0.287 0.769 0.675 1.224 1.166v0l5.517 5.939-1.676 1.558-5.517-5.94c-0.874-0.941-1.643-1.465-2.308-1.572-0.66-0.103-1.385 0.213-2.174 0.945v0c-0.9 0.836-1.427 2.079-1.581 3.729v0l6.778 7.298-1.676 1.557-9.167-9.869 1.677-1.557 0.979 1.054c0.176-1.737 0.765-3.071 1.767-4v0c0.799-0.742 1.578-1.216 2.338-1.423 0.76-0.206 1.541-0.141 2.344 0.196v0c0.044-2.123 0.643-3.72 1.796-4.791z" fill="#3767c7" data-fill-palette-color="accent"></path><path d="M87.698 1.438c1.394-0.313 2.507-0.32 3.339-0.018 0.833 0.308 1.456 0.826 1.867 1.554 0.42 0.733 0.763 1.693 1.029 2.878v0l1.71 7.606-2.233 0.502-0.292-1.303c-0.479 0.702-0.989 1.248-1.531 1.638-0.549 0.392-1.17 0.666-1.864 0.823v0c-0.822 0.185-1.606 0.174-2.352-0.034-0.747-0.207-1.391-0.603-1.934-1.189-0.535-0.587-0.907-1.342-1.114-2.264v0c-0.319-1.421-0.127-2.624 0.579-3.611 0.713-0.981 1.824-1.641 3.332-1.98v0c1.185-0.266 2.311-0.247 3.377 0.058v0c-0.188-0.771-0.404-1.37-0.648-1.796-0.244-0.426-0.617-0.714-1.117-0.863-0.499-0.142-1.186-0.115-2.062 0.081v0l-1.757 0.395-0.45-2zM89.593 13.12c0.539-0.121 1.079-0.377 1.62-0.767 0.537-0.382 1.034-0.894 1.491-1.535v0l-0.672-2.99c-0.989-0.245-2.005-0.25-3.049-0.014v0c-0.842 0.189-1.503 0.55-1.985 1.082-0.482 0.533-0.616 1.274-0.402 2.224v0c0.2 0.889 0.588 1.481 1.163 1.776 0.576 0.295 1.187 0.37 1.834 0.224z" fill="#3767c7" data-fill-palette-color="accent"></path><path d="M135.254 13.129l7.37 1.851-0.504 2.008-9.851-2.473 0.505-2.008 9.144-7.301-6.447-1.618 0.51-2.028 8.906 2.235-0.509 2.029z" fill="#3767c7" data-fill-palette-color="accent"></path><path d="M178.405 39.002c-1.064-0.953-1.759-1.998-2.086-3.133-0.326-1.126-0.315-2.26 0.033-3.404 0.343-1.138 0.964-2.209 1.861-3.211v0c0.903-1.008 1.901-1.744 2.995-2.21 1.094-0.466 2.22-0.601 3.379-0.406 1.165 0.2 2.279 0.776 3.343 1.73v0c1.064 0.953 1.759 1.998 2.086 3.133 0.321 1.131 0.308 2.263-0.04 3.397-0.348 1.134-0.974 2.204-1.877 3.212v0c-0.898 1.002-1.891 1.739-2.979 2.209-1.093 0.476-2.217 0.613-3.372 0.413-1.165-0.2-2.279-0.776-3.343-1.73zM179.786 37.46c1.002 0.898 2.092 1.244 3.268 1.037 1.181-0.212 2.269-0.873 3.264-1.983v0c0.999-1.116 1.535-2.267 1.606-3.454 0.072-1.187-0.394-2.229-1.396-3.127v0c-1.002-0.898-2.092-1.249-3.269-1.052-1.182 0.192-2.273 0.846-3.272 1.962v0c-0.995 1.11-1.527 2.269-1.598 3.475-0.071 1.197 0.395 2.244 1.397 3.142z" fill="#3767c7" data-fill-palette-color="accent"></path><path d="M218.567 75.462c0.571 1.555 0.585 2.862 0.04 3.923-0.547 1.054-1.766 1.928-3.657 2.624v0l-7.609 2.796-0.789-2.148 7.609-2.796c1.192-0.438 1.967-0.951 2.324-1.538 0.349-0.591 0.336-1.396-0.037-2.413v0c-0.438-1.192-1.393-2.19-2.865-2.995v0l-9.349 3.435-0.789-2.147 12.643-4.646 0.789 2.147-1.351 0.497c1.541 0.853 2.555 1.94 3.041 3.261z" fill="#3767c7" data-fill-palette-color="accent"></path><path d="M15.049 142.695c0.314 1.03 0.382 1.864 0.202 2.504-0.18 0.64-0.533 1.137-1.06 1.493-0.522 0.347-1.222 0.655-2.1 0.922v0l-5.594 1.709-0.502-1.644 0.961-0.293c-0.551-0.315-0.99-0.665-1.317-1.049-0.32-0.386-0.558-0.836-0.715-1.351v0c-0.185-0.607-0.221-1.196-0.106-1.764 0.115-0.569 0.377-1.071 0.785-1.507 0.406-0.442 0.946-0.765 1.619-0.971v0c1.05-0.321 1.965-0.243 2.745 0.234 0.774 0.478 1.33 1.272 1.669 2.38v0c0.266 0.871 0.315 1.715 0.145 2.532v0c0.566-0.18 1.001-0.374 1.306-0.582 0.311-0.21 0.505-0.508 0.582-0.893 0.079-0.378 0.021-0.887-0.174-1.527v0l-0.396-1.297 1.475-0.45zM6.409 144.782c0.121 0.396 0.34 0.784 0.658 1.162 0.326 0.384 0.738 0.727 1.235 1.031v0l2.208-0.675c0.124-0.752 0.069-1.511-0.165-2.277v0c-0.189-0.621-0.497-1.097-0.923-1.428-0.424-0.325-0.986-0.381-1.686-0.167v0c-0.653 0.2-1.074 0.523-1.262 0.97-0.188 0.447-0.21 0.908-0.065 1.384z" fill="#3767c7" data-fill-palette-color="accent"></path><path d="M46.283 189.337c0.892 0.845 1.328 1.709 1.308 2.593-0.025 0.889-0.557 1.883-1.595 2.98v0l-4.186 4.42-1.256-1.188 4.186-4.421c0.664-0.702 1.019-1.302 1.064-1.801 0.05-0.504-0.216-1.032-0.797-1.582v0c-0.692-0.655-1.699-0.977-3.022-0.965v0c-0.197 0.279-0.469 0.601-0.816 0.967v0l-4.185 4.42-1.248-1.181 4.186-4.421c0.664-0.702 1.019-1.302 1.064-1.801 0.05-0.504-0.216-1.032-0.798-1.582v0c-0.677-0.641-1.638-0.976-2.883-1.005v0l-5.14 5.427-1.248-1.181 6.955-7.345 1.248 1.182-0.74 0.782c1.31 0.052 2.338 0.432 3.085 1.139v0c0.591 0.56 0.983 1.121 1.173 1.681 0.196 0.556 0.185 1.145-0.032 1.766v0c1.59-0.073 2.815 0.299 3.677 1.116z" fill="#3767c7" data-fill-palette-color="accent"></path><path d="M89.007 210.978c1.048 0.247 1.803 0.609 2.265 1.087 0.462 0.478 0.714 1.033 0.756 1.667 0.037 0.626-0.05 1.385-0.26 2.279v0l-1.342 5.693-1.673-0.394 0.231-0.977c-0.55 0.317-1.073 0.52-1.569 0.609-0.494 0.082-1.004 0.061-1.528-0.063v0c-0.618-0.146-1.144-0.411-1.578-0.797-0.434-0.386-0.736-0.865-0.905-1.436-0.177-0.574-0.185-1.203-0.024-1.889v0c0.252-1.068 0.78-1.819 1.585-2.254 0.803-0.428 1.769-0.509 2.897-0.242v0c0.887 0.209 1.64 0.592 2.26 1.149v0c0.129-0.579 0.181-1.053 0.154-1.421-0.025-0.375-0.184-0.692-0.477-0.952-0.286-0.259-0.755-0.465-1.407-0.619v0l-1.32-0.311 0.353-1.502zM86.459 219.493c0.403 0.095 0.848 0.101 1.336 0.017 0.496-0.089 1-0.271 1.512-0.548v0l0.529-2.247c-0.588-0.486-1.271-0.821-2.05-1.004v0c-0.631-0.149-1.198-0.123-1.699 0.078-0.494 0.203-0.826 0.66-0.993 1.372v0c-0.157 0.665-0.089 1.192 0.202 1.579 0.292 0.388 0.679 0.639 1.163 0.753z" fill="#3767c7" data-fill-palette-color="accent"></path><path d="M137.912 218.828l5.527-1.411 0.384 1.505-7.383 1.885-0.384-1.505 3.427-8.087-4.845 1.237-0.389-1.525 6.68-1.706 0.39 1.525z" fill="#3767c7" data-fill-palette-color="accent"></path><path d="M187.714 193.696c-0.787 0.725-1.616 1.17-2.487 1.335-0.871 0.165-1.718 0.077-2.539-0.265-0.831-0.342-1.59-0.885-2.278-1.631v0c-0.683-0.741-1.161-1.54-1.434-2.396-0.273-0.846-0.292-1.697-0.057-2.552 0.235-0.855 0.746-1.645 1.533-2.37v0c0.792-0.73 1.621-1.175 2.487-1.335 0.871-0.165 1.718-0.077 2.539 0.265 0.826 0.346 1.58 0.89 2.263 1.631v0c0.688 0.746 1.17 1.545 1.448 2.396 0.273 0.846 0.292 1.697 0.057 2.552-0.23 0.85-0.741 1.64-1.532 2.37zM186.661 192.554c0.746-0.688 1.081-1.48 1.006-2.376-0.066-0.897-0.48-1.758-1.243-2.586v0c-0.758-0.822-1.581-1.303-2.469-1.442-0.878-0.138-1.691 0.136-2.437 0.824v0c-0.741 0.683-1.083 1.472-1.027 2.369 0.066 0.897 0.478 1.756 1.236 2.578v0c0.762 0.827 1.588 1.31 2.476 1.449 0.898 0.139 1.717-0.133 2.458-0.816z" fill="#3767c7" data-fill-palette-color="accent"></path><path d="M207.566 142.92c0.401-1.176 1.009-1.942 1.824-2.299 0.823-0.361 1.95-0.297 3.38 0.191v0l5.762 1.966-0.555 1.627-5.762-1.966c-0.901-0.308-1.594-0.373-2.077-0.195-0.49 0.175-0.867 0.649-1.13 1.419v0c-0.308 0.901-0.22 1.938 0.263 3.109v0l7.074 2.414-0.555 1.627-9.573-3.267 0.555-1.626 1.019 0.347c-0.493-1.226-0.568-2.342-0.225-3.347z" fill="#3767c7" data-fill-palette-color="accent"></path><path d="M0 112.074c0-2.925 2.371-5.296 5.296-5.296 2.925 0 5.296 2.371 5.295 5.296 0 2.925-2.371 5.296-5.295 5.295-2.925 0-5.296-2.371-5.296-5.295z" fill="#3767c7" data-fill-palette-color="accent"></path><path d="M212.312 112.074c0-2.925 2.371-5.296 5.295-5.296 2.925 0 5.296 2.371 5.296 5.296 0 2.925-2.371 5.296-5.296 5.295-2.925 0-5.296-2.371-5.295-5.295z" fill="#3767c7" data-fill-palette-color="accent"></path></g><g id="text-1"></g></svg></g></svg></g></svg></g><defs></defs></svg><rect width="395.52" height="134.64370999114462" fill="none" stroke="none" visibility="hidden"></rect></g></svg></g></svg>